<?xml version="1.0" encoding="UTF-8"?>
<svg width="27px" height="28px" viewBox="0 0 27 28" version="1.1" xmlns="http://www.w3.org/2000/svg" xmlns:xlink="http://www.w3.org/1999/xlink">
    <!-- Generator: Sketch 54.1 (76490) - https://sketchapp.com -->
    <title>Shape Copy 2</title>
    <desc>Created with Sketch.</desc>
    <g id="Desktop" stroke="none" stroke-width="1" fill="none" fill-rule="evenodd">
        <g id="Artboard" transform="translate(-204.000000, -191.000000)" fill="#1A4081" fill-rule="nonzero">
            <path d="M227.577539,197.405099 C225.774023,197.431467 224.292188,198.902837 224.255273,200.706451 C224.228906,201.987966 224.914453,203.11127 225.942773,203.701927 L225.942773,209.640141 C225.942773,212.661986 223.295508,215.124816 220.036523,215.124816 C216.872461,215.124816 214.27793,212.799103 214.135547,209.89328 C217.974609,209.102222 220.875,205.695395 220.875,201.624079 L220.875,193.42871 C220.875,192.827505 220.447852,192.305406 219.857227,192.189384 L216.540234,191.524895 C215.854688,191.387778 215.190234,191.830771 215.053125,192.516355 L214.884375,193.34433 C214.747266,194.029915 215.190234,194.694404 215.875781,194.831521 L217.494727,195.153218 L217.494727,201.555521 C217.494727,204.345321 215.269336,206.655213 212.479688,206.681582 C209.663672,206.70795 207.369727,204.429701 207.369727,201.618805 L207.369727,195.158492 L208.988672,194.836795 C209.674219,194.699678 210.117188,194.035188 209.980078,193.349604 L209.816602,192.521629 C209.679492,191.836045 209.015039,191.393052 208.329492,191.530169 L205.017773,192.184111 C204.427148,192.305406 204,192.822232 204,193.42871 L204,201.624079 C204,205.700669 206.905664,209.112769 210.755273,209.89328 C210.892383,214.660728 215.000391,218.5 220.03125,218.5 C225.146484,218.5 229.3125,214.523611 229.3125,209.640141 L229.3125,203.701927 C230.319727,203.116543 231,202.030156 231,200.780283 C231,198.897563 229.460156,197.37873 227.577539,197.405099 Z M227,201.5 C226.45,201.5 226,201.05 226,200.5 C226,199.95 226.45,199.5 227,199.5 C227.55,199.5 228,199.95 228,200.5 C228,201.05 227.55,201.5 227,201.5 Z" id="Shape-Copy-2"></path>
        </g>
    </g>
</svg>