<?xml version="1.0" encoding="UTF-8"?>
<svg width="35px" height="50px" viewBox="0 0 35 50" version="1.1" xmlns="http://www.w3.org/2000/svg" xmlns:xlink="http://www.w3.org/1999/xlink">
    <!-- Generator: Sketch 54.1 (76490) - https://sketchapp.com -->
    <title>Shape</title>
    <desc>Created with Sketch.</desc>
    <g id="Desktop" stroke="none" stroke-width="1" fill="none" fill-rule="evenodd">
        <g id="Drugs---AE" transform="translate(-659.000000, -159.000000)" fill="#1A4081" fill-rule="nonzero">
            <path d="M691.668931,159.327329 L661.658423,159.327329 C660.418858,159.327329 659.404669,160.394896 659.404669,161.699701 L659.404669,166.444445 C659.404669,167.74925 660.418858,168.816818 661.658423,168.816818 L691.668931,168.816818 C692.908496,168.816818 693.904669,167.74925 693.904669,166.444445 C693.904669,164.151152 693.904669,162.569571 693.904669,161.699701 C693.904669,160.394896 692.908496,159.327329 691.668931,159.327329 Z M661.302567,205.509508 C661.302567,207.249248 662.669053,208.672671 664.339203,208.672671 L688.632295,208.672671 C690.302445,208.672671 691.668931,207.249248 691.668931,205.509508 L691.668931,170.714715 L661.302567,170.714715 L661.302567,205.509508 Z M666.99626,187.321321 C666.99626,186.886386 667.352116,186.53053 667.787051,186.53053 L673.322586,186.53053 L673.322586,180.994995 C673.322586,180.56006 673.678442,180.204204 674.113377,180.204204 L678.858121,180.204204 C679.293056,180.204204 679.648912,180.56006 679.648912,180.994995 L679.648912,186.53053 L685.184447,186.53053 C685.619382,186.53053 685.975238,186.886386 685.975238,187.321321 L685.975238,192.066066 C685.975238,192.501001 685.619382,192.856856 685.184447,192.856856 L679.648912,192.856856 L679.648912,198.392392 C679.648912,198.827326 679.293056,199.183182 678.858121,199.183182 L674.113377,199.183182 C673.678442,199.183182 673.322586,198.827326 673.322586,198.392392 L673.322586,192.856856 L667.787051,192.856856 C667.352116,192.856856 666.99626,192.501001 666.99626,192.066066 L666.99626,187.321321 Z" id="Shape"></path>
        </g>
    </g>
</svg>