<?xml version="1.0" encoding="UTF-8"?>
<svg width="21px" height="38px" viewBox="0 0 21 38" version="1.1" xmlns="http://www.w3.org/2000/svg" xmlns:xlink="http://www.w3.org/1999/xlink">
    <!-- Generator: Sketch 54.1 (76490) - https://sketchapp.com -->
    <title>wheat copy</title>
    <desc>Created with Sketch.</desc>
    <g id="Desktop" stroke="none" stroke-width="1" fill="none" fill-rule="evenodd">
        <g id="Artboard" transform="translate(-207.000000, -137.000000)" fill="#1A4081" fill-rule="nonzero">
            <g id="wheat-copy" transform="translate(193.000000, 132.000000)">
                <g id="Layer_3" transform="translate(14.185205, 5.605837)">
                    <path d="M10.7583326,31.5291777 L10.7583326,25.2506401 C10.7583326,23.7736239 11.7430101,22.4769694 13.1712799,22.0869982 L19.7325466,20.283381 C20.1127686,20.1810135 20.4588681,20.527113 20.3565006,20.907335 L18.4895131,27.6002171 C18.0897926,29.0333615 16.9345027,30.1350304 15.4818597,30.4616313 L10.7583326,31.5291777" id="Path"></path>
                    <path d="M10.7583326,20.6441044 L10.7583326,15.1455094 C10.7583326,13.6684932 11.7430101,12.3718387 13.1712799,11.9818675 L19.7325466,10.1782503 C20.1127686,10.0758828 20.4588681,10.4219824 20.3565006,10.8022043 L18.4895131,17.4950864 C18.0897926,18.9282308 16.9345027,20.0298997 15.4818597,20.3565006 L11.5187766,21.2534345 C11.1288053,21.3411781 10.7583326,21.043825 10.7583326,20.6441044 Z" id="Path"></path>
                    <path d="M9.6176666,31.6120466 L9.6176666,25.3383837 C9.6176666,23.8613675 8.63298912,22.564713 7.20471933,22.1747417 L0.643452606,20.3711245 C0.263230611,20.2687571 -0.0828688962,20.6148566 0.0194985638,20.9950786 L1.88648605,27.6879606 C2.28620661,29.121105 3.44149651,30.2227739 4.89413952,30.5493748 L9.6176666,31.6120466" id="Path"></path>
                    <path d="M9.6176666,20.731848 L9.6176666,15.233253 C9.6176666,13.7562368 8.63298912,12.4595823 7.20471933,12.069611 L0.643452606,10.2659938 C0.263230611,10.1636264 -0.0828688962,10.5097259 0.0194985638,10.8899479 L1.88648605,17.5828299 C2.28620661,19.0159744 3.44149651,20.1176432 4.89413952,20.4442441 L8.85234797,21.3363034 C9.24719388,21.424047 9.6176666,21.1266939 9.6176666,20.731848 Z" id="Path"></path>
                    <path d="M10.9143211,36.4135679 L9.46167809,36.4135679 C9.18869819,36.4135679 8.96933935,36.1942091 8.96933935,35.9212292 L8.96933935,31.3634399 L11.4066598,31.3634399 L11.4066598,35.9212292 C11.4066598,36.1942091 11.187301,36.4135679 10.9143211,36.4135679 Z" id="Path"></path>
                    <path d="M13.2687727,9.38855847 L12.2694713,11.0264378 C11.2360474,12.7228129 9.18382355,12.7228129 8.14552503,11.0264378 L7.14622363,9.38855847 C6.7855002,8.79385228 6.71725523,7.9992858 6.97073656,7.32171071 L9.55429626,0.516711941 C9.81265224,-0.170612433 10.6023441,-0.170612433 10.8607,0.516711941 L13.4393851,7.32658535 C13.6977411,7.9992858 13.6343707,8.79385228 13.2687727,9.38855847 Z" id="Path"></path>
                </g>
            </g>
        </g>
    </g>
</svg>