<?xml version="1.0" encoding="UTF-8"?>
<svg width="330px" height="66px" viewBox="0 0 330 66" version="1.1" xmlns="http://www.w3.org/2000/svg" xmlns:xlink="http://www.w3.org/1999/xlink">
    <!-- Generator: Sketch 54.1 (76490) - https://sketchapp.com -->
    <title>Group 3</title>
    <desc>Created with Sketch.</desc>
    <g id="Desktop" stroke="none" stroke-width="1" fill="none" fill-rule="evenodd">
        <g id="Landing-Page" transform="translate(-189.000000, -65.000000)">
            <g id="Group-3" transform="translate(189.801833, 60.974913)">
                <g id="Group">
                    <text id="F" font-family="Arial-Black, Arial Black" font-size="50" font-weight="700" fill="#0027A4">
                        <tspan x="10.6809056" y="55">F</tspan>
                    </text>
                    <rect id="Rectangle" stroke="#0027A4" stroke-width="6" x="3" y="7.02508726" width="93" height="60"></rect>
                    <path d="M50,6.02508726 L95,6.02508726 L95,66.0250873 L50,66.0250873 L50,6.02508726 Z M58.4143303,19.2089844 L58.4143303,55 L74.8449943,55 C76.8144052,55 79.0116489,54.6744824 81.4367912,54.0234375 C83.2108886,53.5514299 84.8710283,52.60336 86.41726,51.1791992 C87.9634916,49.7550385 89.1719757,47.9891056 90.0427482,45.8813477 C90.9135208,43.7735897 91.3489006,40.8073108 91.3489006,36.9824219 C91.3489006,34.5410034 91.0559348,32.2298286 90.4699943,30.0488281 C89.8840539,27.8678276 88.9400529,25.9554119 87.6379631,24.3115234 C86.3358732,22.667635 84.6879405,21.4062544 82.6941154,20.5273438 C80.7002904,19.6484331 78.0839428,19.2089844 74.8449943,19.2089844 L58.4143303,19.2089844 Z M69.4739006,27.3144531 L72.2326896,27.3144531 C75.0972873,27.3144531 77.148048,28.0143159 78.3850334,29.4140625 C79.6220187,30.8138091 80.2405021,33.4098118 80.2405021,37.2021484 C80.2405021,40.0667461 79.9638122,42.1378517 79.410424,43.4155273 C78.8570358,44.693203 78.0920695,45.5883763 77.1155021,46.1010742 C76.1389348,46.6137721 74.495071,46.8701172 72.1838615,46.8701172 L69.4739006,46.8701172 L69.4739006,27.3144531 Z" id="Combined-Shape" fill="#0027A4"></path>
                </g>
                <text id="Reports" font-family="Arial-Black, Arial Black" font-size="50" font-weight="700" fill="#000000">
                    <tspan x="115.642015" y="56">Reports</tspan>
                </text>
            </g>
        </g>
    </g>
</svg>